<?xml version="1.0" encoding="UTF-8"?>
<svg id="Layer_1" data-name="Layer 1" xmlns="http://www.w3.org/2000/svg" viewBox="0 0 504.94 117.09">
  <defs>
    <style>
      .cls-1 {
        fill: #000;
        stroke-width: 0px;
      }
    </style>
  </defs>
  <path class="cls-1" d="M0,117.09V0h504.94v117.09H0ZM6.07,6.02v104.98h492.81V6.02H6.07Z"/>
  <path class="cls-1" d="M199.56,48.14h-4.14v6.46c4.33.99,8.69,1.98,13.05,2.98.23.05.5.1.65.25,1.36,1.41,2.7,2.82,4.01,4.27.18.19.18.59.18.89.01,2.96.04,5.92-.01,8.87,0,.46-.24,1.01-.56,1.34-1.23,1.31-2.49,2.6-3.82,3.81-.42.38-1.09.65-1.66.67-1.83.08-3.67.03-5.59.03v-6.91h4.22c0-2.1.02-4.12-.03-6.14,0-.21-.43-.54-.7-.61-3.99-.91-7.99-1.77-11.98-2.7-.54-.12-1.09-.48-1.48-.87-1.21-1.21-2.81-2.32-3.39-3.81-.59-1.53-.16-3.47-.17-5.22,0-1.08.12-2.18-.03-3.23-.24-1.73.43-2.94,1.72-4.01,1.2-.99,2.11-2.69,3.43-3.05,1.93-.53,4.12-.14,6.29-.14v7.1Z"/>
  <path class="cls-1" d="M140.35,70.82v-22.67h-8.53v-7.12c1.14,0,2.25,0,3.35,0,2.2,0,4.4-.03,6.6.03.49.01,1.08.25,1.45.58,1.35,1.24,2.66,2.54,3.91,3.89.34.36.6.95.6,1.44.05,8.28.07,16.55.05,24.83,0,.49-.26,1.08-.6,1.44-1.25,1.35-2.58,2.62-3.9,3.9-.27.26-.65.56-.98.56-3.47.04-6.94.03-10.48.03v-6.91h8.53Z"/>
  <path class="cls-1" d="M276.09,77.73c-2.3,0-4.5.03-6.69-.04-.3-.01-.73-.51-.85-.86-1.31-3.94-2.6-7.88-3.84-11.84-.28-.9-.68-1.31-1.66-1.2-.9.1-1.83.02-2.82.02v-6.91h8.46v-8.73h-8.46v-7.15c1.45,0,2.91,0,4.38,0,.4,0,.8,0,1.2,0,1.71.03,3.72-.48,5.06.24,1.86,1,3.24,2.91,4.79,4.47.22.22.32.64.32.97.02,3.68.03,7.36-.01,11.03,0,.41-.25.91-.54,1.22-1.12,1.2-2.28,2.36-3.47,3.48-.6.56-.67,1.07-.39,1.86,1.45,4.1,2.82,8.23,4.22,12.34.11.33.19.66.32,1.1Z"/>
  <path class="cls-1" d="M337.58,41.03c0,2.27.03,4.38-.04,6.49,0,.22-.56.58-.89.6-1.07.08-2.14.03-3.3.03v22.61h4.17v6.96c-2.15,0-4.25.02-6.35-.02-.26,0-.55-.29-.77-.5-1.31-1.29-2.64-2.57-3.89-3.91-.33-.36-.58-.96-.58-1.45-.04-8.28-.04-16.55,0-24.83,0-.49.25-1.08.58-1.45.96-1.06,2.12-1.96,3.03-3.07,1.02-1.25,2.21-1.62,3.76-1.48,1.35.12,2.71.02,4.28.02Z"/>
  <path class="cls-1" d="M87.79,41.02c2.56,0,4.91-.04,7.27.04.39.01.92.43,1.12.81,3.88,7.21,7.72,14.45,11.57,21.68,2.41,4.53,4.83,9.05,7.24,13.58.07.13.12.27.27.59-2.62,0-5.12.04-7.61-.05-.3,0-.65-.61-.86-1-3.61-6.73-7.21-13.46-10.8-20.2-2.57-4.8-5.13-9.61-7.7-14.42-.15-.27-.27-.56-.5-1.04Z"/>
  <path class="cls-1" d="M162.35,70.8h4.59v6.92c-2.28,0-4.5.02-6.71-.02-.26,0-.54-.31-.76-.53-1.29-1.26-2.59-2.5-3.82-3.81-.32-.34-.59-.88-.59-1.33-.02-10.03,0-20.06.03-30.09,0-.27.07-.54.12-.86h7.14v29.72Z"/>
  <path class="cls-1" d="M169,77.73v-6.92h4.48v-29.73h7.22v1.13c0,9.87.01,19.74-.03,29.61,0,.55-.34,1.16-.68,1.64-.39.54-1.04.9-1.42,1.45-1.77,2.55-4.23,3.23-7.16,2.83-.77-.11-1.58-.02-2.42-.02Z"/>
  <path class="cls-1" d="M278.52,41.03c2.56,0,4.91-.02,7.26.03.29,0,.7.34.85.63,3.42,6.74,6.82,13.5,10.21,20.26.15.31.24.68.24,1.02.01,4.71,0,9.43,0,14.14,0,.15-.04.31-.07.53h-7.29c0-.47,0-.9,0-1.33,0-4.04.02-8.07-.02-12.11,0-.64-.17-1.34-.46-1.92-3.24-6.46-6.52-12.9-9.79-19.35-.28-.56-.55-1.13-.94-1.93Z"/>
  <path class="cls-1" d="M420.46,77.68h-7.2c0-2.08,0-4.11,0-6.13,0-1-.11-2.01.02-3,.5-3.74-.82-6.94-2.56-10.16-2.96-5.45-5.65-11.05-8.45-16.58-.1-.2-.15-.43-.27-.77,2.49,0,4.87-.02,7.26.03.26,0,.62.34.75.61,3.43,6.78,6.84,13.58,10.24,20.37.1.21.2.44.2.67.01,4.95,0,9.91,0,14.97Z"/>
  <path class="cls-1" d="M227.58,41.06h7.25v36.6h-7.25v-36.6Z"/>
  <path class="cls-1" d="M73.29,41.06h7.16v36.6h-7.16v-36.6Z"/>
  <path class="cls-1" d="M250.87,41.02c2.26,0,4.42-.02,6.57.03.25,0,.55.4.7.68.11.22.03.55.03.83,0,11.23,0,22.46,0,33.68,0,.43,0,.87,0,1.39h-7.3v-36.62Z"/>
  <path class="cls-1" d="M129.73,77.68h-7.05v-36.59h7.05v36.59Z"/>
  <path class="cls-1" d="M365.88,77.7h-7v-36.6h7v36.6Z"/>
  <path class="cls-1" d="M382.39,41.06h7.02v36.61h-7.02v-36.61Z"/>
  <path class="cls-1" d="M89.34,48.31c2.29,4.32,4.59,8.63,6.87,12.95.12.23.17.53.17.8,0,5,0,10,0,14.99,0,.19-.06.38-.11.62h-7.16v-29.31c.07-.02.15-.04.22-.06Z"/>
  <path class="cls-1" d="M114.18,41.11v29.6c-.29-.43-.48-.65-.62-.9-2.09-3.93-4.18-7.86-6.26-11.79-.14-.27-.28-.59-.28-.89-.02-5.31-.01-10.62-.01-16.02h7.16Z"/>
  <path class="cls-1" d="M298.4,60.67c-1.07-2.15-1.95-4.15-3.05-6.02-.72-1.22-.68-2.16-.01-3.38,1.65-3.04,3.16-6.17,4.69-9.28.33-.68.69-1.01,1.53-.98,2.19.07,4.39.02,6.86.02-3.36,6.58-6.63,13-10.02,19.64Z"/>
  <path class="cls-1" d="M431.8,41.03c-3.37,6.6-6.63,12.99-10.02,19.62-1.31-2.6-2.53-4.98-3.69-7.38-.12-.25.05-.7.2-1,1.75-3.53,3.52-7.05,5.31-10.57.14-.27.47-.64.72-.64,2.42-.05,4.84-.03,7.48-.03Z"/>
  <path class="cls-1" d="M339.65,41.03c1.99,0,3.87-.03,5.74.02.38.01.83.25,1.12.52,1.37,1.28,2.71,2.59,4.02,3.94.28.28.54.73.54,1.11.04,2.87.02,5.74.02,8.71h-7.15v-7.14h-4.29v-7.16Z"/>
  <path class="cls-1" d="M351.1,63.42c0,3.02.02,5.93-.02,8.84,0,.34-.24.75-.49,1.01-1.34,1.37-2.71,2.71-4.1,4.03-.24.22-.61.42-.92.43-1.95.04-3.9.02-5.92.02v-6.92h4.19v-7.4h7.25Z"/>
  <path class="cls-1" d="M205.92,52.75v-4.53h-4.25v-7.2c2.1,0,4.19-.01,6.29.02.22,0,.47.26.66.44,1.39,1.37,2.79,2.74,4.15,4.14.27.28.5.74.51,1.12.06,1.71.06,3.43,0,5.15-.01.29-.43.81-.66.82-2.18.06-4.37.04-6.71.04Z"/>
  <path class="cls-1" d="M195.37,66.3v4.44h4.2v6.98c-2.07,0-4.13.02-6.19-.02-.26,0-.56-.26-.77-.47-1.34-1.31-2.68-2.63-3.99-3.97-.25-.25-.45-.67-.46-1.01-.04-1.95-.02-3.91-.02-5.94h7.23Z"/>
  <path class="cls-1" d="M217.21,41.05h8.29v7.13c-2.59,0-5.14.01-7.68-.02-.2,0-.58-.36-.58-.55-.04-2.15-.03-4.29-.03-6.56Z"/>
  <path class="cls-1" d="M372.06,41.08h8.21v6.94h-8.21v-6.94Z"/>
  <path class="cls-1" d="M399.72,48.06h-8.19v-6.96h8.19v6.96Z"/>
  <path class="cls-1" d="M244.93,48.1h-7.98v-6.99h7.98v6.99Z"/>
</svg>